<?xml version="1.0" encoding="UTF-8"?>
<svg version="1.1" xmlns="http://www.w3.org/2000/svg" width="677" height="651">
<path d="M0 0 C1.03714142 0.00182281 2.07428284 0.00364563 3.14285278 0.00552368 C18.26674374 0.05027884 32.97965382 0.47726698 47.875 3.3125 C48.83164551 3.48410645 49.78829102 3.65571289 50.77392578 3.83251953 C81.6644973 9.43760296 111.16222778 19.50123277 138.875 34.3125 C140.45908362 31.62544159 142.042127 28.93777171 143.625 26.25 C144.0684375 25.49783203 144.511875 24.74566406 144.96875 23.97070312 C147.63810763 19.43672068 150.27507674 14.88666406 152.875 10.3125 C158.92044811 11.94477099 163.99977935 15.07462774 169.375 18.1875 C171.41714151 19.35691453 173.46013438 20.52484341 175.50390625 21.69140625 C177.07229248 22.58690186 177.07229248 22.58690186 178.67236328 23.50048828 C183.85458511 26.43252444 189.08075795 29.28252355 194.3125 32.125 C195.2715625 32.64626465 196.230625 33.1675293 197.21875 33.70458984 C199.43670458 34.90870399 201.65537348 36.11147145 203.875 37.3125 C203.28582985 41.53512733 201.82025035 44.48185453 199.64453125 48.12890625 C198.68836914 49.76956055 198.68836914 49.76956055 197.71289062 51.44335938 C196.69615187 53.16603054 195.67930166 54.88867291 194.65063477 56.60424805 C193.65535284 58.27080527 192.68085889 59.94972228 191.70703125 61.62890625 C191.11639893 62.62349854 190.5257666 63.61809082 189.91723633 64.64282227 C188.61127797 67.19966422 188.61127797 67.19966422 189.47509766 69.4675293 C190.98357789 71.45559786 192.51232525 72.9318658 194.44140625 74.515625 C205.95720025 84.2727471 216.72870588 95.30239559 225.875 107.3125 C226.66777344 108.31152344 227.46054687 109.31054688 228.27734375 110.33984375 C249.32737821 136.96050578 269.16421648 169.96818054 276.875 203.3125 C283.38844986 202.73094198 289.71397525 201.64300062 296.11328125 200.32885742 C300.09754293 199.53835256 303.81523248 199.16728281 307.875 199.3125 C308.4375 201.25 308.4375 201.25 308.875 203.3125 C308.545 203.6425 308.215 203.9725 307.875 204.3125 C307.92261647 207.26270571 308.03933431 210.18185903 308.20361328 213.12646484 C308.25215014 214.05987387 308.30068699 214.99328289 308.35069466 215.95497704 C309.37198592 235.12271822 310.67015746 254.27568287 311.9309063 273.42884254 C312.43705007 281.12071615 312.93376209 288.81307987 313.41852844 296.50633109 C313.80445162 302.6169939 314.20550102 308.72658186 314.61185074 314.83591843 C314.78165356 317.42325581 314.94666376 320.01091233 315.10680771 322.59886551 C315.33023224 326.19401689 315.57091132 329.7876119 315.81591797 333.38134766 C315.878367 334.45030777 315.94081604 335.51926788 316.00515747 336.62062073 C316.07514954 337.59568069 316.1451416 338.57074066 316.21725464 339.5753479 C316.27218519 340.42285425 316.32711575 341.2703606 316.38371086 342.14354897 C316.97921361 344.7725839 317.77380163 345.6627336 319.875 347.3125 C322.22154796 348.45945925 324.53681386 349.50277764 326.9453125 350.5 C327.65084259 350.79925385 328.35637268 351.09850769 329.08328247 351.40682983 C331.38607598 352.38212062 333.69291332 353.34741418 336 354.3125 C339.18611187 355.65598291 342.37038655 357.00379408 345.5546875 358.3515625 C346.34866943 358.6867691 347.14265137 359.02197571 347.96069336 359.36734009 C352.83439655 361.42976849 357.67997443 363.5432576 362.5078125 365.7109375 C363.63687012 366.21753906 364.76592773 366.72414063 365.92919922 367.24609375 C368.00422319 368.18199455 370.076357 369.12433975 372.14501953 370.07421875 C377.12484291 372.31171895 381.41438075 373.90521624 386.875 374.3125 C386.545 375.9625 386.215 377.6125 385.875 379.3125 C385.34358398 379.45236328 384.81216797 379.59222656 384.26464844 379.73632812 C356.56770585 387.11427172 332.12945329 398.97151667 307.5 413.5625 C294.60810036 421.18566347 281.70213819 427.90753402 267.4375 432.5625 C266.68871582 432.80887207 265.93993164 433.05524414 265.16845703 433.30908203 C261.93567537 434.36079641 258.72068424 435.35348739 255.43359375 436.2265625 C246.60892368 438.99906421 243.69524335 444.39597787 239.36328125 452.05078125 C235.95041169 458.06354588 231.65966681 463.31408979 227.26513672 468.62988281 C226.36202122 469.72301102 225.4648404 470.82107942 224.57470703 471.92480469 C217.8177303 480.3013067 210.39523642 487.99830522 202.8125 495.625 C201.90266357 496.54410156 200.99282715 497.46320313 200.05541992 498.41015625 C193.96989965 504.46777384 187.62191477 510.0047013 180.875 515.3125 C180.1955835 515.85124756 179.51616699 516.38999512 178.81616211 516.94506836 C117.80300475 564.81544172 41.46274412 584.21288823 -35.125 576.3125 C-53.54442023 573.99691574 -71.4465501 569.94246587 -89.125 564.3125 C-90.0320166 564.02568359 -90.9390332 563.73886719 -91.87353516 563.44335938 C-115.08881881 555.94062681 -137.87082267 544.90545373 -158.125 531.3125 C-158.84574707 530.83071289 -159.56649414 530.34892578 -160.30908203 529.85253906 C-170.10478641 523.24758288 -179.26413705 516.11849832 -188.125 508.3125 C-188.85976562 507.67699219 -189.59453125 507.04148437 -190.3515625 506.38671875 C-192.28817538 504.7085781 -194.20742563 503.01234183 -196.125 501.3125 C-196.93710938 500.60480469 -197.74921875 499.89710938 -198.5859375 499.16796875 C-203.14016112 495.15396085 -207.38217915 491.10052148 -211.29296875 486.45703125 C-213.43869097 483.94530098 -215.68714129 481.54334816 -217.9375 479.125 C-233.57454394 461.88898014 -246.494437 441.97601126 -257.125 421.3125 C-257.7430249 420.11536377 -257.7430249 420.11536377 -258.37353516 418.89404297 C-292.69827296 351.60278787 -297.89018099 271.86215311 -275.41040039 200.03051758 C-264.41414514 166.20812807 -247.41888011 134.97848381 -225.125 107.3125 C-224.66754395 106.73790039 -224.21008789 106.16330078 -223.73876953 105.57128906 C-217.04077882 97.21664722 -209.60340829 89.58980203 -202.0625 82 C-201.15250244 81.08065674 -200.24250488 80.16131348 -199.30493164 79.21411133 C-193.21909005 73.15672615 -186.86850473 67.62435704 -180.125 62.3125 C-179.45621826 61.77906982 -178.78743652 61.24563965 -178.09838867 60.69604492 C-127.44065024 20.64697064 -64.31232276 -0.23477519 0 0 Z " fill="#28403B" transform="translate(289.125,23.6875)"/>
<path d="M0 0 C1.03714142 0.00182281 2.07428284 0.00364563 3.14285278 0.00552368 C18.26674374 0.05027884 32.97965382 0.47726698 47.875 3.3125 C48.83164551 3.48410645 49.78829102 3.65571289 50.77392578 3.83251953 C82.05479655 9.50842263 112.20694844 19.50775969 139.875 35.3125 C138.53282029 38.83060193 136.9866391 42.1114345 135.1875 45.41796875 C134.39508911 46.87819458 134.39508911 46.87819458 133.58666992 48.36791992 C133.02181885 49.40150635 132.45696777 50.43509277 131.875 51.5 C130.9938855 53.11902222 130.9938855 53.11902222 130.0949707 54.77075195 C125.987037 62.30746036 121.83612538 69.81943207 117.65625 77.31640625 C114.10914916 83.68133459 110.58455472 90.0586905 107.0625 96.4375 C106.71830017 97.06073151 106.37410034 97.68396301 106.01947021 98.32608032 C101.36521976 106.75668532 96.75616749 115.21012251 92.1875 123.6875 C88.04893875 131.3660624 83.81901966 138.98405317 79.5 146.5625 C74.31429648 155.66323275 69.3357375 164.86569743 64.4175415 174.1126709 C59.68270309 183.00927057 54.80411294 191.81088604 49.80444336 200.5612793 C44.7203054 209.49814905 39.88043099 218.55996069 35.07421875 227.6484375 C33.9024798 229.85632116 32.70922906 232.05295311 31.49243164 234.23632812 C29.82527136 237.24203739 29.82527136 237.24203739 28.77124023 240.32617188 C27.4611779 243.47590215 26.55099431 245.17073011 23.875 247.3125 C18.55633609 248.82035161 12.93239573 248.49544686 7.46166992 248.28662109 C4.81562924 248.18761708 2.17702382 248.16365567 -0.47070312 248.15234375 C-2.15893294 248.12417171 -3.84709849 248.09176268 -5.53515625 248.0546875 C-6.32173111 248.0439621 -7.10830597 248.03323669 -7.91871643 248.02218628 C-12.87620653 247.80827921 -15.50410526 246.98225685 -19.125 243.3125 C-23.76803195 237.1829256 -27.29061094 230.44248489 -30.125 223.3125 C-30.785 223.3125 -31.445 223.3125 -32.125 223.3125 C-31.37051844 232.86926641 -25.85136462 240.12303074 -19.50390625 246.890625 C-18.125 249.3125 -18.125 249.3125 -18.64453125 252.2734375 C-25.04913239 265.42061345 -37.91345147 275.38300745 -49.39208984 283.99926758 C-50.56692112 284.88957716 -51.72334222 285.80461419 -52.86181641 286.7409668 C-59.88116431 292.2811606 -67.51409368 290.86684856 -76.05078125 290.0234375 C-87.18847886 288.34040764 -97.77019407 283.58326097 -108.125 279.3125 C-107.08462878 282.4608129 -106.20614442 283.26734617 -103.25390625 284.91015625 C-88.805026 290.84480038 -75.64674251 293.10854365 -60.125 294.3125 C-47.47141716 323.95255919 -42.42205798 359.13731524 -54.4375 389.8125 C-56.72601815 394.80944789 -59.48285038 399.4988129 -62.31640625 404.203125 C-64.17035334 407.39047249 -65.81619631 410.62622564 -67.4375 413.9375 C-71.20479246 421.61466537 -75.37545896 429.04532383 -79.55566406 436.50341797 C-82.70295858 442.13701639 -85.81941809 447.78769951 -88.9375 453.4375 C-89.45298401 454.3709877 -89.45298401 454.3709877 -89.97888184 455.32333374 C-94.63369931 463.75484764 -99.2432826 472.20920312 -103.8125 480.6875 C-108.48236274 489.35089065 -113.27565649 497.93539816 -118.15844727 506.48046875 C-121.17197577 511.77777602 -124.10266647 517.11119238 -126.94921875 522.5 C-127.26763229 523.10075348 -127.58604584 523.70150696 -127.91410828 524.32046509 C-129.46998745 527.25752093 -131.01511316 530.19897257 -132.54467773 533.14990234 C-133.09969971 534.20129395 -133.65472168 535.25268555 -134.2265625 536.3359375 C-134.71463379 537.27356934 -135.20270508 538.21120117 -135.70556641 539.17724609 C-137.125 541.3125 -137.125 541.3125 -140.125 542.3125 C-141.84814453 541.60668945 -141.84814453 541.60668945 -143.7578125 540.42578125 C-144.83059448 539.76932617 -144.83059448 539.76932617 -145.92504883 539.09960938 C-146.69228271 538.61298828 -147.4595166 538.12636719 -148.25 537.625 C-149.04752686 537.12677734 -149.84505371 536.62855469 -150.66674805 536.11523438 C-163.92026114 527.74706885 -176.36582172 518.67177611 -188.125 508.3125 C-188.85976562 507.67699219 -189.59453125 507.04148437 -190.3515625 506.38671875 C-192.28817538 504.7085781 -194.20742563 503.01234183 -196.125 501.3125 C-196.93710938 500.60480469 -197.74921875 499.89710938 -198.5859375 499.16796875 C-203.14016112 495.15396085 -207.38217915 491.10052148 -211.29296875 486.45703125 C-213.43869097 483.94530098 -215.68714129 481.54334816 -217.9375 479.125 C-233.57454394 461.88898014 -246.494437 441.97601126 -257.125 421.3125 C-257.7430249 420.11536377 -257.7430249 420.11536377 -258.37353516 418.89404297 C-292.69827296 351.60278787 -297.89018099 271.86215311 -275.41040039 200.03051758 C-264.41414514 166.20812807 -247.41888011 134.97848381 -225.125 107.3125 C-224.66754395 106.73790039 -224.21008789 106.16330078 -223.73876953 105.57128906 C-217.04077882 97.21664722 -209.60340829 89.58980203 -202.0625 82 C-201.15250244 81.08065674 -200.24250488 80.16131348 -199.30493164 79.21411133 C-193.21909005 73.15672615 -186.86850473 67.62435704 -180.125 62.3125 C-179.45621826 61.77906982 -178.78743652 61.24563965 -178.09838867 60.69604492 C-127.44065024 20.64697064 -64.31232276 -0.23477519 0 0 Z " fill="#E1592D" transform="translate(289.125,23.6875)"/>
<path d="M0 0 C3.57653548 0.51396934 6.79989267 1.57145018 10.16870117 2.85083008 C11.18098785 3.23288605 12.19327454 3.61494202 13.23623657 4.00857544 C14.32745819 4.42469086 15.41867981 4.84080627 16.54296875 5.26953125 C18.90371022 6.16174743 21.26446938 7.05391681 23.62524414 7.94604492 C24.87269985 8.41892612 26.12010519 8.8919402 27.36746216 9.36508179 C33.76355246 11.79013662 40.16662532 14.19665364 46.5703125 16.6015625 C47.20272165 16.83911695 47.83513081 17.07667141 48.48670387 17.32142448 C63.26498464 22.86997332 78.09352512 28.24300497 93.03710938 33.32946777 C95.11383804 34.03888758 97.18789143 34.75577852 99.26171875 35.47363281 C102.84015664 36.71003086 106.42523815 37.92503844 110.01608276 39.12490845 C111.35457806 39.57463983 112.6912096 40.02996673 114.02566528 40.49154663 C121.52074119 43.07513643 127.23367299 44.70534578 135 43 C136.914729 42.65637623 138.82951635 42.31306197 140.74497986 41.97355652 C145.15017031 41.18432501 149.54615958 40.34481137 153.94262695 39.50854492 C156.13147958 39.09349588 158.32149438 38.68508251 160.51171875 38.27734375 C161.80553467 38.03234131 163.09935059 37.78733887 164.43237305 37.53491211 C167.69960245 37.0450401 170.70639123 36.96034893 174 37 C175.55287227 52.03730499 176.66088167 67.07983175 177.60133171 82.16695023 C177.88761415 86.73957098 178.18254997 91.31160856 178.47796959 95.88364661 C178.54281936 96.88739107 178.54281936 96.88739107 178.60897923 97.91141319 C178.65247191 98.58450547 178.69596459 99.25759775 178.74077523 99.95108676 C179.32463314 108.99515801 179.9024862 118.03957174 180.46557617 127.08496094 C180.88980313 133.89862166 181.32856301 140.71122951 181.77578926 147.52341843 C181.943076 150.11074324 182.10529659 152.69840075 182.26237297 155.28636551 C182.48110674 158.88148086 182.71689942 162.47509095 182.95678711 166.06884766 C183.0481041 167.67228783 183.0481041 167.67228783 183.14126587 169.30812073 C183.24408623 170.77071068 183.24408623 170.77071068 183.34898376 172.2628479 C183.42943137 173.53410743 183.42943137 173.53410743 183.51150417 174.83104897 C184.10379716 177.46086566 184.89910256 178.35017095 187 180 C189.3233885 181.13537462 191.61477247 182.16675168 194 183.15234375 C194.70037888 183.44890869 195.40075775 183.74547363 196.12236023 184.05102539 C197.62927639 184.6883378 199.13756329 185.32241688 200.64706421 185.95358276 C204.61060401 187.61099948 208.56440126 189.29138828 212.51953125 190.96875 C213.3165596 191.30599594 214.11358795 191.64324188 214.93476868 191.9907074 C222.5572028 195.22144615 230.12865879 198.56110062 237.6875 201.9375 C238.83798828 202.45111084 239.98847656 202.96472168 241.17382812 203.49389648 C243.78346112 204.66058687 246.39227364 205.82905572 249 207 C246.00938429 208.5694134 243.15081547 209.54459595 239.87670898 210.39257812 C215.22885339 216.89926218 192.71649154 230.03923603 170.81835938 242.72729492 C163.24225307 247.11224063 155.64069435 251.32823217 147.75 255.125 C147.00000732 255.49141602 146.25001465 255.85783203 145.47729492 256.23535156 C136.75732655 260.32439283 128.57610612 261.36662511 119 261.3125 C117.99469238 261.30903564 116.98938477 261.30557129 115.95361328 261.30200195 C107.03313592 261.17363445 98.6850417 259.93998863 90 258 C88.33130859 257.67515625 88.33130859 257.67515625 86.62890625 257.34375 C58.94660368 251.6514283 36.14241969 236.09275795 15.265625 217.72265625 C14.61134521 217.14878174 13.95706543 216.57490723 13.28295898 215.98364258 C12.00915705 214.86293046 10.74008288 213.73681157 9.47680664 212.60424805 C2.60976021 206.54706069 -4.04242175 201.48642279 -13.515625 201.62011719 C-18.1801704 202.33336725 -21.6660405 205.01069979 -25.5 207.625 C-27.35380782 208.82749691 -29.21071347 210.02522843 -31.0703125 211.21875 C-32.03743164 211.84265625 -33.00455078 212.4665625 -34.00097656 213.109375 C-63.53098163 231.72549021 -99.58250787 251.92900901 -135.375 252.3125 C-136.26960938 252.34150391 -137.16421875 252.37050781 -138.0859375 252.40039062 C-147.45482844 252.48890486 -154.49790078 249.32434976 -161.26953125 242.890625 C-167.09963652 236.52093889 -167.70372449 230.41368496 -167.44140625 221.8671875 C-163.79609254 189.93036829 -129.6962677 159.64952515 -108.25 138.125 C-107.3626416 137.23296875 -106.4752832 136.3409375 -105.56103516 135.421875 C-101.09398085 130.96569351 -96.5702401 126.64790439 -91.78271484 122.53759766 C-89.18751653 120.29923023 -86.69527681 117.96091519 -84.1875 115.625 C-79.56409129 111.35335649 -74.80528268 107.31234061 -69.89453125 103.37109375 C-67.8113437 101.66462297 -65.77800586 99.94189446 -63.76171875 98.16015625 C-39.71358996 76.92316127 -14.31430776 65.97922145 18 65 C18.33 64.01 18.66 63.02 19 62 C-0.18072147 63.25108246 -16.92731626 65.79643625 -34.5859375 73.51171875 C-38 75 -38 75 -41 76 C-39.31879895 69.88372868 -36.22482563 64.58482977 -33.1875 59.0625 C-32.6107251 58.00562988 -32.0339502 56.94875977 -31.43969727 55.85986328 C-26.98025772 47.71559168 -22.42560228 39.6265818 -17.83374023 31.55639648 C-13.3538559 23.67106331 -8.9997489 15.72089658 -4.69311523 7.73974609 C-3.98650757 6.43384521 -3.98650757 6.43384521 -3.265625 5.1015625 C-2.85086914 4.33150879 -2.43611328 3.56145508 -2.00878906 2.76806641 C-1 1 -1 1 0 0 Z " fill="#FDFDFD" transform="translate(422,191)"/>
<path d="M0 0 C1.01900391 0.00676758 1.01900391 0.00676758 2.05859375 0.01367188 C3.70576874 0.0252717 5.35289726 0.04319801 7 0.0625 C6.67 1.3825 6.34 2.7025 6 4.0625 C5.45287354 4.10213867 4.90574707 4.14177734 4.34204102 4.18261719 C-22.88488741 6.24091271 -45.74386223 12.21463588 -67 30.0625 C-67.92619141 30.83762939 -67.92619141 30.83762939 -68.87109375 31.62841797 C-71.86507081 34.14845416 -74.83124029 36.69764843 -77.77734375 39.2734375 C-80.58254174 41.7204371 -83.46200888 44.05676266 -86.375 46.375 C-91.8897843 50.8440178 -97.02822709 55.68132133 -102.16748047 60.5715332 C-105.32020397 63.56896382 -108.49326752 66.50896126 -111.796875 69.33984375 C-116.61757377 73.5247105 -121.11674304 78.02898354 -125.6184082 82.55053711 C-127.06025221 83.99774385 -128.50737116 85.43952026 -129.95507812 86.88085938 C-135.18187172 92.10317649 -140.24075783 97.40909268 -145 103.0625 C-145.52553467 103.68133057 -146.05106934 104.30016113 -146.5925293 104.93774414 C-162.33109657 123.61288295 -180.15461385 145.37287334 -178 171.0625 C-176.37938381 177.64753541 -171.59753563 182.44971148 -166 186.0625 C-160.02179581 189.06970742 -154.49186517 189.54346188 -147.875 189.4375 C-146.94558594 189.42662354 -146.01617187 189.41574707 -145.05859375 189.40454102 C-137.39447638 189.22848423 -130.36831053 188.24483401 -123 186.0625 C-121.88866699 185.73983154 -121.88866699 185.73983154 -120.75488281 185.41064453 C-89.17040885 176.07973195 -57.39621734 159.67230694 -30.54296875 140.6484375 C-26.61048865 138.19592303 -23.48157234 138.34637246 -19 139.0625 C-10.71375006 141.96268748 -4.50316925 148.35822755 2 154.0625 C27.44711024 176.24872306 54.35555145 191.52562534 88 197.0625 C89.62035156 197.34287109 89.62035156 197.34287109 91.2734375 197.62890625 C96.27438045 198.21077697 101.21910762 198.28626327 106.25 198.3125 C107.70986328 198.3434375 107.70986328 198.3434375 109.19921875 198.375 C120.4342737 198.43468157 129.68898986 195.13352748 139.6875 190.25 C140.67153809 189.77498047 141.65557617 189.29996094 142.66943359 188.81054688 C151.0659274 184.67942407 159.11163454 180.03187425 167.15917969 175.26538086 C219.71687832 144.15466912 219.71687832 144.15466912 242 145.0625 C241.67 146.7125 241.34 148.3625 241 150.0625 C240.46858398 150.20236328 239.93716797 150.34222656 239.38964844 150.48632812 C211.69270585 157.86427172 187.25445329 169.72151667 162.625 184.3125 C149.73310036 191.93566347 136.82713819 198.65753402 122.5625 203.3125 C121.81371582 203.55887207 121.06493164 203.80524414 120.29345703 204.05908203 C117.06067537 205.11079641 113.84568424 206.10348739 110.55859375 206.9765625 C101.73392368 209.74906421 98.82024335 215.14597787 94.48828125 222.80078125 C91.07541169 228.81354588 86.78466681 234.06408979 82.39013672 239.37988281 C81.48702122 240.47301102 80.5898404 241.57107942 79.69970703 242.67480469 C72.9427303 251.0513067 65.52023642 258.74830522 57.9375 266.375 C57.02766357 267.29410156 56.11782715 268.21320313 55.18041992 269.16015625 C49.09489965 275.21777384 42.74691477 280.7547013 36 286.0625 C35.3205835 286.60124756 34.64116699 287.13999512 33.94116211 287.69506836 C-27.03691606 335.53791891 -103.44064266 355.01932404 -180 347.0625 C-197.36494464 344.83371303 -214.24177872 341.08478877 -231 336.0625 C-225.56318263 325.70750903 -219.92618392 315.46550361 -214.26531982 305.23193359 C-209.51066123 296.6349067 -204.79216402 288.01997208 -200.125 279.375 C-195.73077318 271.23872119 -191.28380423 263.13531288 -186.78125 255.05859375 C-183.23414905 248.69366521 -179.70958548 242.31629269 -176.1875 235.9375 C-175.84695587 235.32091522 -175.50641174 234.70433044 -175.1555481 234.06906128 C-169.70952767 224.20473276 -164.31942182 214.31153362 -158.98510742 204.38623047 C-158.23837769 203.00008545 -158.23837769 203.00008545 -157.4765625 201.5859375 C-157.04424316 200.78075684 -156.61192383 199.97557617 -156.16650391 199.14599609 C-155.19124273 197.4040792 -154.10737511 195.72356267 -153 194.0625 C-154.27875 194.000625 -155.5575 193.93875 -156.875 193.875 C-165.01643466 192.94052715 -172.05805564 189.05354928 -177.52734375 182.9765625 C-183.89931176 174.69469426 -184.31155908 165.1572435 -183 155.0625 C-181.84159481 150.42887926 -180.11737341 146.33486513 -178 142.0625 C-177.49210937 141.00675781 -176.98421875 139.95101562 -176.4609375 138.86328125 C-168.32158785 122.87389532 -156.66911938 108.97705179 -144.5546875 95.86328125 C-142.61109784 93.73246506 -140.72469913 91.57852631 -138.84765625 89.390625 C-134.31752341 84.19821707 -129.44348041 79.360166 -124.5625 74.5 C-123.65951172 73.59314453 -122.75652344 72.68628906 -121.82617188 71.75195312 C-117.26879061 67.20117198 -112.66002541 62.78287584 -107.77172852 58.58911133 C-105.17933701 56.35537506 -102.69150433 54.01990123 -100.1875 51.6875 C-95.57047506 47.42175456 -90.81550319 43.38878179 -85.91796875 39.4453125 C-82.54025225 36.68707011 -79.23809845 33.84958775 -75.9375 31 C-60.67966693 17.86638621 -60.67966693 17.86638621 -55 15.0625 C-54.34 14.4025 -53.68 13.7425 -53 13.0625 C-36.65182059 4.87616863 -18.31172098 -0.16349751 0 0 Z " fill="#E1592E" transform="translate(434,252.9375)"/>
<path d="M0 0 C-1.22004825 3.90735104 -2.62293911 7.43538345 -4.58203125 11.02734375 C-5.35135986 12.44418457 -5.35135986 12.44418457 -6.13623047 13.88964844 C-6.96598389 15.39833496 -6.96598389 15.39833496 -7.8125 16.9375 C-8.3914502 17.9987207 -8.97040039 19.05994141 -9.56689453 20.15332031 C-13.95587696 28.17108253 -18.45417622 36.12433649 -22.97949219 44.06567383 C-27.63434567 52.27009655 -32.08220716 60.57860943 -36.50973511 68.90673828 C-42.44872448 80.06951951 -48.63904603 91.07289898 -55 102 C-60.32017615 102.09906509 -65.63981247 102.17156072 -70.96069336 102.21972656 C-72.7697078 102.23981053 -74.57865757 102.26708341 -76.38745117 102.30175781 C-78.99153621 102.35041892 -81.59476115 102.37300051 -84.19921875 102.390625 C-85.40731453 102.42159271 -85.40731453 102.42159271 -86.63981628 102.45318604 C-90.59337319 102.45475685 -92.51678897 102.30802089 -95.93261719 100.13061523 C-101.93526722 93.94436975 -105.84120974 85.94602518 -109 78 C-109.66 78 -110.32 78 -111 78 C-110.24551844 87.55676641 -104.72636462 94.81053074 -98.37890625 101.578125 C-97 104 -97 104 -97.51953125 106.9609375 C-103.92413239 120.10811345 -116.78845147 130.07050745 -128.26708984 138.68676758 C-129.44192112 139.57707716 -130.59834222 140.49211419 -131.73681641 141.4284668 C-138.75616431 146.9686606 -146.38909368 145.55434856 -154.92578125 144.7109375 C-166.06347886 143.02790764 -176.64519407 138.27076097 -187 134 C-185.95962878 137.1483129 -185.08114442 137.95484617 -182.12890625 139.59765625 C-167.680026 145.53230038 -154.52174251 147.79604365 -139 149 C-126.33381827 178.66957114 -121.3831527 213.70437682 -133.25 244.4375 C-142.86265268 265.1821304 -157.74806643 280.29261055 -179 289 C-182.01584701 289.88676183 -184.89208787 290.48201464 -188 291 C-188.83679277 288.37605694 -189.66956942 285.75095616 -190.5 283.125 C-190.73847656 282.37863281 -190.97695312 281.63226563 -191.22265625 280.86328125 C-193 275.2265625 -193 275.2265625 -193 273 C-192.48050781 272.76925781 -191.96101563 272.53851563 -191.42578125 272.30078125 C-184.73076895 269.16984204 -179.87452828 265.31873685 -176.79370117 258.44262695 C-173.8450296 249.3680471 -176.73865284 239.82451066 -179.4375 231.0625 C-180.08333983 228.88710682 -180.72791967 226.71133907 -181.37109375 224.53515625 C-181.65911865 223.590354 -181.94714355 222.64555176 -182.24389648 221.67211914 C-182.96393492 219.12745634 -183.51947658 216.59942251 -184 214 C-190.69316351 215.1004234 -197.17710787 216.50258109 -203.6875 218.4140625 C-206 219 -206 219 -209 219 C-209.24008789 218.24944336 -209.48017578 217.49888672 -209.72753906 216.72558594 C-214.58189673 201.56884736 -219.48001264 186.4263015 -224.48327637 171.31799316 C-224.98660393 169.79631079 -225.4883646 168.27410906 -225.98840332 166.75134277 C-228.93910389 157.77278959 -232.11654096 148.97922233 -235.79199219 140.26953125 C-241.00760088 126.15323545 -237.66603504 112.27358456 -231.68359375 99.1015625 C-220.57685894 77.52095526 -202.30655157 58.07405673 -184.39160156 41.98681641 C-177.93002963 36.13595357 -171.86141309 29.88299005 -165.77319336 23.64794922 C-159.84433616 17.63830816 -153.62627644 12.22655518 -147 7 C-146.42765625 6.53762939 -145.8553125 6.07525879 -145.265625 5.59887695 C-97.10104167 -33.21620943 -52.24932228 -21.37927388 0 0 Z " fill="#FDFDFD" transform="translate(368,169)"/>
<path d="M0 0 C6.47799111 4.44413586 11.98749435 9.67755 17.50854492 15.24780273 C18.92480012 16.67470465 20.35133705 18.09068211 21.77929688 19.50585938 C27.94985206 25.6935669 33.59259379 32.13862827 39 39 C39.48702393 39.60739014 39.97404785 40.21478027 40.47583008 40.84057617 C61.9595471 67.71744699 82.1824117 101.19381659 90 135 C96.51344986 134.41844198 102.83897525 133.33050062 109.23828125 132.01635742 C113.22254293 131.22585256 116.94023248 130.85478281 121 131 C121.5625 132.9375 121.5625 132.9375 122 135 C120.40890431 136.59109569 118.55020557 136.48788193 116.35546875 136.83203125 C115.37779541 136.98905518 114.40012207 137.1460791 113.39282227 137.30786133 C111.80618774 137.55765747 111.80618774 137.55765747 110.1875 137.8125 C103.8571511 138.82473116 97.54370708 139.84654892 91.2734375 141.1875 C89.95049683 141.47016724 89.95049683 141.47016724 88.60083008 141.75854492 C86.96001128 142.1166307 85.32156305 142.48583951 83.6862793 142.8684082 C75.07752976 144.74011638 67.58887776 143.17217211 59.3515625 140.39453125 C58.52557053 140.12279587 57.69957855 139.85106049 56.84855652 139.5710907 C54.10355252 138.66260025 51.36407757 137.73869455 48.625 136.8125 C47.67112396 136.49297363 46.71724792 136.17344727 45.73446655 135.84423828 C12.14919675 124.57495383 -21.03005232 111.94538901 -54 99 C-49.1038167 88.89289051 -43.84573898 79.08698236 -38.27270508 69.33764648 C-33.88165298 61.62813228 -29.66377578 53.83373052 -25.5 46 C-19.31706235 34.37390714 -12.91929603 22.88252323 -6.38964844 11.44775391 C-4.23200153 7.64723249 -2.11304386 3.82545833 0 0 Z " fill="#E1592D" transform="translate(476,92)"/>
<path d="M0 0 C8.19715998 3.26263199 14.66259326 9.86380602 21.23828125 15.56640625 C52.61932817 42.70854736 83.79503128 55.05028762 124.97265625 59.78515625 C105.80994148 72.56029943 73.49218573 74.86009659 50.96875 74.98828125 C49.7204113 74.99893867 49.7204113 74.99893867 48.44685364 75.0098114 C1.29838452 75.32049481 -44.7741515 66.82188624 -86.02734375 42.78515625 C-83.95445651 40.71226901 -82.61703841 40.06498817 -79.94140625 38.97265625 C-79.10399902 38.62517334 -78.2665918 38.27769043 -77.40380859 37.91967773 C-76.4958252 37.54528564 -75.5878418 37.17089355 -74.65234375 36.78515625 C-56.33328028 29.04318968 -39.22976657 19.75773298 -22.20703125 9.51953125 C-21.16377686 8.89208008 -20.12052246 8.26462891 -19.0456543 7.61816406 C-17.06968047 6.41816313 -15.1019635 5.20443333 -13.14379883 3.97558594 C-12.26361084 3.42805664 -11.38342285 2.88052734 -10.4765625 2.31640625 C-9.71174561 1.83236328 -8.94692871 1.34832031 -8.15893555 0.84960938 C-5.2564239 -0.59981804 -3.1294761 -0.74037307 0 0 Z " fill="#28403A" transform="translate(414.02734375,396.21484375)"/>
<path d="M0 0 C3 1 3 1 4.8671875 4.38671875 C5.54636144 5.81564746 6.21523074 7.24950869 6.875 8.6875 C10.81836985 17.69652161 10.81836985 17.69652161 18 24 C20.84208026 24.15706331 23.66337307 24.2584957 26.5078125 24.31640625 C27.34843231 24.33718735 28.18905212 24.35796844 29.05514526 24.37937927 C31.74501235 24.44485439 34.43497843 24.5037502 37.125 24.5625 C38.94662489 24.60568716 40.76823971 24.64930152 42.58984375 24.69335938 C47.05979394 24.80053368 51.52984386 24.90180685 56 25 C55.50588623 25.92619141 55.01177246 26.85238281 54.50268555 27.80664062 C53.81818976 29.0898401 53.13370141 30.37304353 52.44921875 31.65625 C52.08632248 32.33651245 51.72342621 33.0167749 51.34953308 33.71765137 C49.02787597 38.07042283 46.71024078 42.42531049 44.39453125 46.78125 C37.98204801 58.8200218 31.47201717 70.78275748 24.7043457 82.62695312 C20.45639985 90.09947902 16.47709475 97.69210705 12.54077148 105.33227539 C0.11535059 129.32697411 0.11535059 129.32697411 -7 140 C-8.32 139.67 -9.64 139.34 -11 139 C-11.06316406 139.72703125 -11.12632812 140.4540625 -11.19140625 141.203125 C-12.23477973 149.76977042 -15.25921156 155.85078963 -20 163 C-21.45759899 160.08480202 -20.38661838 157.92953069 -19.6640625 154.88330078 C-13.02377276 126.50576385 -19.08418318 100.13084561 -28 73 C-28.55236328 72.96559814 -29.10472656 72.93119629 -29.67382812 72.89575195 C-44.5881335 71.89950848 -62.58433097 70.43140391 -75 61 C-75.75390625 58.84765625 -75.75390625 58.84765625 -76 57 C-71.80768363 57.33991754 -68.56017759 58.58706785 -64.8125 60.375 C-53.02849228 65.9223016 -38.98540528 68.9947062 -26 67 C-21.9977991 64.96206948 -18.81554088 62.3795657 -15.5078125 59.35595703 C-13.95315309 57.95787116 -12.35114184 56.64604461 -10.71875 55.33984375 C3.39131602 43.97655615 3.39131602 43.97655615 13 29 C11.41563654 24.58298671 8.11049958 20.81631508 5.36523438 17.04101562 C-1.28404915 7.67006198 -1.28404915 7.67006198 -0.6875 2.0625 C-0.460625 1.381875 -0.23375 0.70125 0 0 Z " fill="#28403A" transform="translate(257,246)"/>
<path d="M0 0 C1.50010466 2.31750863 2.5629737 4.30345141 3.625 6.8125 C3.92349854 7.49610596 4.22199707 8.17971191 4.52954102 8.8840332 C12.40272193 27.42787317 11.94652418 45.93518275 4.609375 64.55859375 C-0.68525901 75.88037182 -9.58841334 87.90119091 -20 95 C-23.24551194 94.93811524 -24.22153431 93.78484319 -26.578125 91.49609375 C-27.47751191 90.48428347 -28.36793154 89.46444308 -29.25 88.4375 C-29.70890625 87.91736328 -30.1678125 87.39722656 -30.640625 86.86132812 C-31.7682143 85.58104445 -32.88517315 84.29141202 -34 83 C-33.505 81.515 -33.505 81.515 -33 80 C-32.34 80 -31.68 80 -31 80 C-30.31225595 78.67741528 -29.65288627 77.34013497 -29 76 C-28.46375 75.05125 -27.9275 74.1025 -27.375 73.125 C-24.7543943 66.85715956 -24.85007982 59.09532975 -26.66796875 52.62109375 C-30.37815835 45.12963812 -37.01742878 38.90105577 -42.51611328 32.68408203 C-45.2769042 29.55082508 -47.77146103 26.53944425 -50 23 C-49.47812688 16.44255079 -46.0284052 8.41324524 -41 4 C-35.95215806 2.64255375 -31.36365983 2.81422018 -26.18066406 3.01025391 C-19.83003881 2.98039203 -13.53658113 0.90022065 -7.421875 -0.65625 C-4.46414725 -1.07605652 -2.78886466 -1.14171967 0 0 Z " fill="#FDFCFB" transform="translate(322,443)"/>
<path d="M0 0 C1.32177734 1.64208984 1.32177734 1.64208984 2.8359375 3.9609375 C3.40038574 4.8171167 3.96483398 5.6732959 4.54638672 6.55541992 C5.1498291 7.48588135 5.75327148 8.41634277 6.375 9.375 C7.63512611 11.29576357 8.89554847 13.21633281 10.15625 15.13671875 C10.79433594 16.11302246 11.43242187 17.08932617 12.08984375 18.09521484 C13.90455347 20.85485394 15.74254124 23.59677796 17.59375 26.33203125 C18.14756348 27.15203613 18.70137695 27.97204102 19.27197266 28.81689453 C20.32610651 30.37577966 21.38299702 31.93280488 22.44287109 33.48779297 C22.91289551 34.18662598 23.38291992 34.88545898 23.8671875 35.60546875 C24.28081543 36.21543701 24.69444336 36.82540527 25.12060547 37.45385742 C26 39 26 39 26 41 C23.95556641 42.61645508 23.95556641 42.61645508 21.1015625 44.51953125 C20.06386719 45.21240234 19.02617187 45.90527344 17.95703125 46.61914062 C16.85746094 47.34294922 15.75789063 48.06675781 14.625 48.8125 C13.56410156 49.52470703 12.50320313 50.23691406 11.41015625 50.97070312 C-7.87557231 63.760809 -7.87557231 63.760809 -20 62 C-27.99348058 59.80758028 -32.89345833 53.60150672 -36.9375 46.6875 C-39.05358871 39.34342741 -39.00275036 32.65122907 -35.36328125 25.8515625 C-31.68458202 20.85527758 -26.91688036 17.2738585 -21.9375 13.6875 C-21.28499268 13.21401123 -20.63248535 12.74052246 -19.96020508 12.25268555 C-2.97667315 0 -2.97667315 0 0 0 Z " fill="#E25A2F" transform="translate(306,370)"/>
<path d="M0 0 C16.49593084 7.01077061 25.06455338 20.10955794 31.96875 36.34375 C38.29184338 52.63050568 37.52130389 68.32200602 30.5625 84.30078125 C25.14410336 95.17664951 17.47593243 104.43038584 8 112 C4.16549144 110.45212498 1.97444301 108.06277254 -0.75 105 C-1.94882812 103.6696875 -1.94882812 103.6696875 -3.171875 102.3125 C-5 100 -5 100 -5 98 C-4.2575 97.319375 -3.515 96.63875 -2.75 95.9375 C1.32691043 91.96512573 3.66721579 87.06900989 4.28125 81.40625 C4.32435499 77.82853544 4.13978375 74.60491214 3.33203125 71.109375 C2.91663382 67.21930027 3.84591138 65.01522945 5.375 61.4375 C11.76083567 46.29343719 10.84377694 27.23489451 5 12 C3.74646707 9.21594952 2.4367517 6.52331557 0.953125 3.85546875 C0 2 0 2 0 0 Z " fill="#FDFBFA" transform="translate(326,442)"/>
<path d="M0 0 C0.71841064 0.27674561 1.43682129 0.55349121 2.17700195 0.83862305 C5.55170108 2.13182261 8.93105428 3.4120424 12.3125 4.6875 C13.53388672 5.14866211 14.75527344 5.60982422 16.01367188 6.08496094 C24.01644446 9.04980563 31.96073205 11.58809532 40.34887695 13.2019043 C44.20965054 14.04539416 45.70982194 14.55914125 47.92578125 17.92578125 C52.94463983 32.28884199 52.02758942 45.23802927 46 59 C41.41479437 68.25577414 34.42568454 75.01327218 27 82 C22.84900489 80.61633496 21.3873856 78.6151839 19 75 C19.6207952 72.98528966 20.29561579 70.98702978 21 69 C21.35144094 65.31670948 21.35144094 65.31670948 21.3125 61.5 C21.32925781 60.2315625 21.34601563 58.963125 21.36328125 57.65625 C20.97280663 53.72631187 19.82810894 51.45670345 18 48 C17.41015625 45.02734375 17.41015625 45.02734375 17.0625 41.9375 C15.14474052 28.390447 10.38618269 14.98272837 1.75 4.1875 C0 2 0 2 0 0 Z " fill="#FDFBFB" transform="translate(348,453)"/>
<path d="M0 0 C8.50962439 4.85827748 12.9376714 11.96158918 15.82421875 21.3515625 C17.41139584 29.88704819 15.72294807 38.25634312 11.06640625 45.54296875 C10.4425 46.43371094 9.81859375 47.32445312 9.17578125 48.2421875 C-6.17120668 40.89496808 -20.96487859 32.51549486 -35.82421875 24.2421875 C-37.61707276 23.24588725 -39.41002408 22.24976206 -41.203125 21.25390625 C-42.41015625 20.58333333 -43.6171875 19.91276042 -44.82421875 19.2421875 C-41.39174359 10.15810209 -36.58980618 3.69802778 -27.82421875 -0.7578125 C-18.8885248 -4.31011706 -8.70801956 -4.13310257 0 0 Z " fill="#E0582C" transform="translate(492.82421875,2.7578125)"/>
<path d="M0 0 C3.60963251 1.32514233 6.90758387 3.00454688 10.26660156 4.86889648 C23.32672944 12.08937052 37.16457231 17.46985987 51 23 C46.94508513 27.26958683 42.53778513 30.85074221 37.875 34.4375 C37.09310303 35.04223145 36.31120605 35.64696289 35.50561523 36.27001953 C27.45988442 42.4649522 19.29066665 48.48933342 11.08691406 54.47265625 C9.19408046 55.85795889 7.30990959 57.25390421 5.4296875 58.65625 C4.44226563 59.3884375 3.45484375 60.120625 2.4375 60.875 C1.19806641 61.79925781 1.19806641 61.79925781 -0.06640625 62.7421875 C-2 64 -2 64 -4 64 C-2.94547175 42.64156457 -1.81425542 21.31020914 0 0 Z " fill="#263F3A" transform="translate(143,587)"/>
<path d="M0 0 C3 1 3 1 4.8671875 4.38671875 C5.54636144 5.81564746 6.21523074 7.24950869 6.875 8.6875 C10.81836985 17.69652161 10.81836985 17.69652161 18 24 C20.84208026 24.15706331 23.66337307 24.2584957 26.5078125 24.31640625 C27.34843231 24.33718735 28.18905212 24.35796844 29.05514526 24.37937927 C31.74501235 24.44485439 34.43497843 24.5037502 37.125 24.5625 C38.94662489 24.60568716 40.76823971 24.64930152 42.58984375 24.69335938 C47.05979394 24.80053368 51.52984386 24.90180685 56 25 C55.50588623 25.92619141 55.01177246 26.85238281 54.50268555 27.80664062 C53.81818976 29.0898401 53.13370141 30.37304353 52.44921875 31.65625 C52.08632248 32.33651245 51.72342621 33.0167749 51.34953308 33.71765137 C49.02787597 38.07042283 46.71024078 42.42531049 44.39453125 46.78125 C37.98204801 58.8200218 31.47201717 70.78275748 24.7043457 82.62695312 C20.45639985 90.09947902 16.47709475 97.69210705 12.54077148 105.33227539 C0.11535059 129.32697411 0.11535059 129.32697411 -7 140 C-7.99 139.67 -8.98 139.34 -10 139 C-9.39916261 135.07151603 -8.19147512 132.11645184 -6.296875 128.6328125 C-5.45515747 127.07602783 -5.45515747 127.07602783 -4.59643555 125.48779297 C-3.98711182 124.37807129 -3.37778809 123.26834961 -2.75 122.125 C-2.11135625 120.95088954 -1.47309705 119.77656985 -0.83520508 118.60205078 C3.64103091 110.38247069 8.25020922 102.24052791 12.8894043 94.11206055 C18.37009201 84.45318154 23.5501365 74.63948993 28.73754883 64.82128906 C34.41622562 54.07496345 40.19534033 43.387939 46.0546875 32.73876953 C46.7257063 31.50452472 47.37172833 30.25654335 48 29 C38.1 29 28.2 29 18 29 C17.34 30.65 16.68 32.3 16 34 C8.34643419 46.21193956 -1.67661609 55.04776845 -13.11108398 63.53466797 C-16.65776644 66.16837122 -19.99063343 68.73853989 -23 72 C-22.61328125 73.13953125 -22.2265625 74.2790625 -21.828125 75.453125 C-17.94371581 87.16257594 -15.088377 98.8435221 -13 111 C-12.70609375 112.62035156 -12.70609375 112.62035156 -12.40625 114.2734375 C-11.80299328 119.80715776 -11.81564259 125.31261862 -11.8125 130.875 C-11.80025391 132.00808594 -11.78800781 133.14117187 -11.77539062 134.30859375 C-11.75992999 143.20360987 -12.18433043 150.93668393 -17.125 158.5625 C-17.66382813 159.40941406 -18.20265625 160.25632812 -18.7578125 161.12890625 C-19.16773438 161.74636719 -19.57765625 162.36382812 -20 163 C-21.45759899 160.08480202 -20.38661838 157.92953069 -19.6640625 154.88330078 C-13.02377276 126.50576385 -19.08418318 100.13084561 -28 73 C-28.55236328 72.96559814 -29.10472656 72.93119629 -29.67382812 72.89575195 C-44.5881335 71.89950848 -62.58433097 70.43140391 -75 61 C-75.75390625 58.84765625 -75.75390625 58.84765625 -76 57 C-71.80768363 57.33991754 -68.56017759 58.58706785 -64.8125 60.375 C-53.02849228 65.9223016 -38.98540528 68.9947062 -26 67 C-21.9977991 64.96206948 -18.81554088 62.3795657 -15.5078125 59.35595703 C-13.95315309 57.95787116 -12.35114184 56.64604461 -10.71875 55.33984375 C3.39131602 43.97655615 3.39131602 43.97655615 13 29 C11.41563654 24.58298671 8.11049958 20.81631508 5.36523438 17.04101562 C-1.28404915 7.67006198 -1.28404915 7.67006198 -0.6875 2.0625 C-0.460625 1.381875 -0.23375 0.70125 0 0 Z " fill="#DB5B32" transform="translate(257,246)"/>
</svg>
